<svg width="17" height="17" viewBox="0 0 17 17" fill="none" xmlns="http://www.w3.org/2000/svg">
<path d="M5.8608 13V4.27273H9.2017C9.83239 4.27273 10.3565 4.37216 10.7741 4.57102C11.1946 4.76705 11.5085 5.03551 11.7159 5.37642C11.9261 5.71733 12.0312 6.10369 12.0312 6.53551C12.0312 6.89062 11.9631 7.1946 11.8267 7.44744C11.6903 7.69744 11.5071 7.90057 11.277 8.05682C11.0469 8.21307 10.7898 8.32528 10.5057 8.39347V8.47869C10.8153 8.49574 11.1122 8.59091 11.3963 8.7642C11.6832 8.93466 11.9176 9.17614 12.0994 9.48864C12.2813 9.80114 12.3722 10.179 12.3722 10.6222C12.3722 11.0739 12.2628 11.4801 12.044 11.8409C11.8253 12.1989 11.4957 12.4815 11.0554 12.6889C10.6151 12.8963 10.0611 13 9.39347 13H5.8608ZM7.44176 11.679H9.14205C9.71591 11.679 10.1293 11.5696 10.3821 11.3509C10.6378 11.1293 10.7656 10.8452 10.7656 10.4986C10.7656 10.2401 10.7017 10.0071 10.5739 9.79972C10.446 9.58949 10.2642 9.42472 10.0284 9.3054C9.79261 9.18324 9.51136 9.12216 9.18466 9.12216H7.44176V11.679ZM7.44176 7.98438H9.00568C9.27841 7.98438 9.52415 7.93466 9.7429 7.83523C9.96165 7.73295 10.1335 7.58949 10.2585 7.40483C10.3864 7.21733 10.4503 6.99574 10.4503 6.74006C10.4503 6.40199 10.331 6.12358 10.0923 5.90483C9.85653 5.68608 9.50568 5.5767 9.03977 5.5767H7.44176V7.98438Z" fill="black"/>
</svg>
