<svg width="17" height="17" viewBox="0 0 17 17" fill="none" xmlns="http://www.w3.org/2000/svg">
<path d="M12.1309 4.03125H6.64648C6.59062 4.03125 6.54492 4.07695 6.54492 4.13281V4.94531C6.54492 5.00117 6.59062 5.04688 6.64648 5.04688H8.94688L6.96641 11.9531H4.90723C4.85137 11.9531 4.80566 11.9988 4.80566 12.0547V12.8672C4.80566 12.923 4.85137 12.9688 4.90723 12.9688H10.3916C10.4475 12.9688 10.4932 12.923 10.4932 12.8672V12.0547C10.4932 11.9988 10.4475 11.9531 10.3916 11.9531H8.02266L10.0031 5.04688H12.1309C12.1867 5.04688 12.2324 5.00117 12.2324 4.94531V4.13281C12.2324 4.07695 12.1867 4.03125 12.1309 4.03125Z" fill="black"/>
</svg>
