<svg width="17" height="17" viewBox="0 0 17 17" fill="none" xmlns="http://www.w3.org/2000/svg">
<g clip-path="url(#clip0_1247_36354)">
<path d="M10.571 3.27273H11.892V9.01278C11.892 9.62358 11.7486 10.1648 11.4616 10.6364C11.1747 11.1051 10.7713 11.4744 10.2514 11.7443C9.73153 12.0114 9.12216 12.1449 8.4233 12.1449C7.72727 12.1449 7.11932 12.0114 6.59943 11.7443C6.07955 11.4744 5.67614 11.1051 5.3892 10.6364C5.10227 10.1648 4.95881 9.62358 4.95881 9.01278V3.27273H6.27557V8.90625C6.27557 9.30114 6.36222 9.65199 6.53551 9.95881C6.71165 10.2656 6.96023 10.5071 7.28125 10.6832C7.60227 10.8565 7.98295 10.9432 8.4233 10.9432C8.86648 10.9432 9.24858 10.8565 9.5696 10.6832C9.89347 10.5071 10.1406 10.2656 10.3111 9.95881C10.4844 9.65199 10.571 9.30114 10.571 8.90625V3.27273Z" fill="black"/>
<line x1="4" y1="13.6667" x2="13" y2="13.6667" stroke="black"/>
</g>
<defs>
<clipPath id="clip0_1247_36354">
<rect width="17" height="17" fill="white"/>
</clipPath>
</defs>
</svg>
