<svg width="17" height="17" viewBox="0 0 17 17" fill="none" xmlns="http://www.w3.org/2000/svg">
<path d="M2.47949 11.6874C2.76128 11.6874 3.03154 11.7994 3.23079 11.9986C3.43005 12.1979 3.54199 12.4681 3.54199 12.7499C3.54199 13.0317 3.43005 13.302 3.23079 13.5012C3.03154 13.7005 2.76128 13.8124 2.47949 13.8124C2.1977 13.8124 1.92745 13.7005 1.72819 13.5012C1.52893 13.302 1.41699 13.0317 1.41699 12.7499C1.41699 12.4681 1.52893 12.1979 1.72819 11.9986C1.92745 11.7994 2.1977 11.6874 2.47949 11.6874V11.6874ZM5.31283 12.0416H14.8775C15.058 12.0418 15.2316 12.1109 15.3629 12.2349C15.4942 12.3588 15.5732 12.5282 15.5838 12.7084C15.5944 12.8886 15.5357 13.0661 15.4198 13.2046C15.304 13.343 15.1396 13.432 14.9603 13.4533L14.8775 13.4583H5.31283C5.13235 13.4579 4.95882 13.3886 4.82767 13.2646C4.69653 13.1406 4.61766 12.9713 4.60717 12.7911C4.59669 12.6109 4.65537 12.4335 4.77125 12.2952C4.88712 12.1568 5.05144 12.0679 5.23066 12.0466L5.31283 12.0416H14.8775H5.31283ZM2.47949 7.43743C2.76128 7.43743 3.03154 7.54937 3.23079 7.74862C3.43005 7.94788 3.54199 8.21813 3.54199 8.49993C3.54199 8.78172 3.43005 9.05197 3.23079 9.25123C3.03154 9.45048 2.76128 9.56243 2.47949 9.56243C2.1977 9.56243 1.92745 9.45048 1.72819 9.25123C1.52893 9.05197 1.41699 8.78172 1.41699 8.49993C1.41699 8.21813 1.52893 7.94788 1.72819 7.74862C1.92745 7.54937 2.1977 7.43743 2.47949 7.43743V7.43743ZM5.31283 7.79159H14.8775C15.058 7.79179 15.2316 7.86092 15.3629 7.98486C15.4942 8.1088 15.5732 8.27818 15.5838 8.45841C15.5944 8.63864 15.5357 8.81611 15.4198 8.95456C15.304 9.093 15.1396 9.18198 14.9603 9.2033L14.8775 9.20826H5.31283C5.13235 9.20788 4.95882 9.13862 4.82767 9.01463C4.69653 8.89064 4.61766 8.72126 4.60717 8.54108C4.59669 8.36091 4.65537 8.18353 4.77125 8.04516C4.88712 7.90678 5.05144 7.81786 5.23066 7.79655L5.31283 7.79159H14.8775H5.31283ZM2.47949 3.19309C2.62128 3.18943 2.76237 3.21419 2.89444 3.26593C3.02651 3.31766 3.14688 3.39531 3.24846 3.4943C3.35004 3.59329 3.43078 3.71162 3.4859 3.84231C3.54102 3.973 3.56942 4.1134 3.56942 4.25524C3.56942 4.39708 3.54102 4.53748 3.4859 4.66817C3.43078 4.79885 3.35004 4.91718 3.24846 5.01617C3.14688 5.11517 3.02651 5.19282 2.89444 5.24455C2.76237 5.29628 2.62128 5.32105 2.47949 5.31738C2.1977 5.31738 1.92745 5.20544 1.72819 5.00618C1.52893 4.80693 1.41699 4.53668 1.41699 4.25488C1.41699 3.97309 1.52893 3.70284 1.72819 3.50358C1.92745 3.30432 2.1977 3.19238 2.47949 3.19238V3.19309ZM5.31283 3.54159H14.8775C15.058 3.54179 15.2316 3.61092 15.3629 3.73486C15.4942 3.8588 15.5732 4.02818 15.5838 4.20841C15.5944 4.38864 15.5357 4.56611 15.4198 4.70456C15.304 4.843 15.1396 4.93198 14.9603 4.9533L14.8775 4.95826H5.31283C5.13125 4.9595 4.95614 4.89096 4.82364 4.76681C4.69115 4.64265 4.61139 4.47235 4.60085 4.29108C4.5903 4.10981 4.64977 3.93141 4.76698 3.79273C4.88418 3.65404 5.05017 3.56566 5.23066 3.54584L5.31283 3.54159H14.8775H5.31283Z" fill="black"/>
</svg>
