<svg id="svg" version="1.1" xmlns="http://www.w3.org/2000/svg" xmlns:xlink="http://www.w3.org/1999/xlink" width="400" height="135.3579175704989" viewBox="0, 0, 400,135.3579175704989"><g id="svgg"><path id="path0" d="M141.896 34.705 C 141.914 35.040,141.822 35.093,141.083 35.167 L 140.250 35.250 140.199 36.134 C 140.153 36.936,140.115 37.013,139.783 36.967 C 139.419 36.917,139.416 36.936,139.371 39.871 L 139.326 42.825 139.746 42.931 C 140.049 43.007,140.167 43.148,140.167 43.435 C 140.167 43.749,140.255 43.833,140.583 43.833 C 140.917 43.833,141.000 43.917,141.000 44.250 C 141.000 44.599,141.079 44.667,141.485 44.667 C 141.904 44.667,141.964 44.724,141.925 45.083 L 141.879 45.500 145.270 45.500 L 148.660 45.500 148.765 45.083 C 148.840 44.784,148.982 44.667,149.268 44.667 C 149.579 44.667,149.667 44.578,149.667 44.262 C 149.667 43.968,149.770 43.842,150.042 43.803 C 150.389 43.754,150.420 43.654,150.465 42.458 C 150.512 41.211,150.528 41.167,150.924 41.167 C 151.322 41.167,151.333 41.133,151.333 39.917 C 151.333 38.694,151.324 38.667,150.917 38.667 C 150.507 38.667,150.500 38.644,150.500 37.333 C 150.500 36.022,150.493 36.000,150.083 36.000 C 149.750 36.000,149.667 35.917,149.667 35.583 C 149.667 35.253,149.583 35.167,149.262 35.167 C 148.968 35.167,148.842 35.063,148.803 34.792 C 148.750 34.418,148.735 34.416,145.313 34.372 L 141.876 34.327 141.896 34.705 M175.863 34.467 C 175.925 34.777,175.592 35.167,175.263 35.167 C 174.942 35.167,174.890 35.266,174.855 35.948 C 174.806 36.898,174.752 36.997,174.326 36.915 C 174.001 36.853,173.994 36.928,174.038 39.884 C 174.083 42.886,174.087 42.917,174.458 42.970 C 174.804 43.019,174.957 43.448,174.847 44.059 C 174.789 44.385,175.248 44.667,175.836 44.667 C 176.367 44.667,176.480 44.731,176.568 45.083 L 176.673 45.500 179.670 45.500 L 182.667 45.500 182.667 45.092 C 182.667 44.725,182.744 44.680,183.458 44.634 L 184.250 44.583 184.301 43.792 C 184.350 43.027,184.477 42.889,185.045 42.981 C 185.116 42.993,185.153 41.445,185.128 39.543 C 185.085 36.209,185.071 36.083,184.750 36.083 C 184.510 36.083,184.402 35.955,184.364 35.625 C 184.323 35.269,184.223 35.167,183.917 35.167 C 183.635 35.167,183.508 35.060,183.470 34.792 L 183.417 34.417 179.628 34.384 C 177.544 34.365,175.850 34.403,175.863 34.467 M159.314 35.292 C 159.304 35.360,159.308 35.548,159.325 35.708 C 159.347 35.928,159.231 36.000,158.855 36.000 C 158.434 36.000,158.347 36.072,158.303 36.458 C 158.261 36.822,158.172 36.908,157.875 36.877 C 157.580 36.846,157.500 36.922,157.500 37.234 C 157.500 37.518,157.382 37.660,157.083 37.735 L 156.667 37.840 156.667 40.837 L 156.667 43.833 157.083 43.833 C 157.512 43.833,157.501 43.806,157.566 45.083 C 157.580 45.356,157.719 45.426,158.331 45.470 C 159.087 45.524,159.394 45.743,159.252 46.128 C 159.191 46.296,159.892 46.331,162.629 46.295 C 166.069 46.250,166.084 46.248,166.137 45.875 C 166.175 45.604,166.302 45.500,166.595 45.500 C 166.916 45.500,167.000 45.413,167.000 45.083 C 167.000 44.750,167.083 44.667,167.417 44.667 L 167.833 44.667 167.833 40.851 L 167.833 37.036 167.417 36.932 C 167.112 36.855,167.000 36.716,167.000 36.413 C 167.000 36.028,166.943 36.000,166.167 36.000 C 165.389 36.000,165.333 35.972,165.333 35.583 L 165.333 35.167 162.333 35.167 C 160.683 35.167,159.325 35.223,159.314 35.292 M55.167 47.750 L 55.167 48.167 53.125 48.186 C 52.002 48.197,51.027 48.197,50.958 48.186 C 50.890 48.176,50.833 48.350,50.833 48.575 C 50.833 48.949,50.762 48.987,49.959 49.033 C 49.178 49.078,49.076 49.128,49.001 49.500 C 48.933 49.838,48.806 49.925,48.333 49.959 C 47.360 50.029,47.333 50.042,47.333 50.444 C 47.333 50.748,47.242 50.833,46.917 50.833 C 46.583 50.833,46.500 50.917,46.500 51.250 C 46.500 51.583,46.417 51.667,46.083 51.667 C 45.854 51.667,45.654 51.760,45.638 51.875 C 45.622 51.990,45.594 52.271,45.576 52.500 C 45.557 52.729,45.532 53.010,45.521 53.125 C 45.509 53.240,45.313 53.333,45.083 53.333 C 44.689 53.333,44.667 53.383,44.667 54.250 C 44.667 55.117,44.644 55.167,44.250 55.167 L 43.833 55.167 43.833 60.486 C 43.833 66.091,43.854 66.333,44.342 66.333 C 44.595 66.333,44.658 66.488,44.700 67.208 C 44.736 67.840,44.820 68.090,45.000 68.106 C 45.137 68.118,45.344 68.137,45.458 68.147 C 45.573 68.158,45.658 68.223,45.647 68.292 C 45.569 68.784,45.702 69.000,46.083 69.000 C 46.417 69.000,46.500 69.083,46.500 69.417 C 46.500 69.750,46.583 69.833,46.917 69.833 C 47.250 69.833,47.333 69.917,47.333 70.250 C 47.333 70.580,47.417 70.667,47.738 70.667 C 48.032 70.667,48.158 70.770,48.197 71.042 C 48.243 71.369,48.362 71.423,49.142 71.468 C 49.932 71.513,50.024 71.556,49.949 71.842 C 49.828 72.305,50.074 72.443,51.083 72.479 C 51.537 72.495,51.667 72.570,51.667 72.816 C 51.667 73.225,51.979 73.333,53.162 73.333 C 54.056 73.333,54.139 73.365,54.235 73.750 C 54.335 74.148,54.396 74.167,55.587 74.167 C 56.805 74.167,56.833 74.176,56.833 74.583 C 56.833 74.977,56.883 75.000,57.750 75.000 C 58.617 75.000,58.667 75.023,58.667 75.417 C 58.667 75.824,58.694 75.833,59.917 75.833 C 60.795 75.833,61.172 75.895,61.186 76.042 C 61.196 76.156,61.215 76.362,61.228 76.500 C 61.250 76.753,61.338 76.780,62.274 76.814 C 62.685 76.829,62.820 76.922,62.902 77.250 C 62.978 77.554,63.118 77.667,63.420 77.667 L 63.833 77.667 63.833 79.833 L 63.833 82.000 63.167 82.021 C 62.117 82.054,62.083 82.068,62.097 82.461 C 62.118 83.051,56.887 83.048,56.803 82.458 C 56.769 82.217,56.616 82.064,56.375 82.030 C 56.141 81.997,55.962 81.825,55.899 81.572 C 55.836 81.321,55.677 81.167,55.482 81.167 C 55.296 81.167,55.163 81.047,55.158 80.875 C 55.153 80.715,55.157 79.587,55.166 78.369 L 55.183 76.155 54.683 75.981 C 54.237 75.825,54.179 75.724,54.134 75.028 L 54.083 74.250 49.191 74.202 C 44.093 74.153,43.833 74.184,43.833 74.857 C 43.833 75.104,43.741 75.157,43.414 75.097 L 42.995 75.021 43.039 80.219 L 43.083 85.417 43.458 85.470 C 43.789 85.517,43.833 85.620,43.833 86.345 C 43.833 87.110,43.862 87.167,44.250 87.167 C 44.620 87.167,44.667 87.237,44.669 87.792 C 44.672 88.535,44.802 88.773,45.250 88.857 C 45.437 88.893,45.606 89.076,45.634 89.276 C 45.688 89.648,46.088 89.827,46.875 89.831 C 47.252 89.833,47.333 89.907,47.333 90.250 C 47.333 90.601,47.411 90.667,47.831 90.667 C 48.249 90.667,48.323 90.728,48.290 91.042 C 48.252 91.398,48.314 91.419,49.542 91.465 C 50.789 91.512,50.833 91.528,50.833 91.924 C 50.833 92.333,50.836 92.333,52.583 92.333 C 54.317 92.333,54.333 92.337,54.333 92.731 C 54.333 93.269,54.546 93.292,59.750 93.305 C 64.209 93.316,64.693 93.281,64.651 92.946 C 64.582 92.382,64.682 92.345,66.375 92.297 C 68.003 92.252,68.086 92.232,68.137 91.875 C 68.186 91.525,68.271 91.500,69.428 91.500 C 70.638 91.500,70.667 91.490,70.667 91.083 C 70.667 90.700,70.728 90.667,71.421 90.667 C 72.061 90.667,72.198 90.607,72.325 90.271 C 72.408 90.054,72.669 89.827,72.905 89.768 C 73.174 89.700,73.333 89.544,73.333 89.348 C 73.333 89.154,73.491 88.997,73.750 88.932 C 74.125 88.838,74.167 88.743,74.167 87.997 C 74.167 87.222,74.195 87.167,74.583 87.167 C 74.971 87.167,75.000 87.110,75.000 86.344 C 75.000 85.571,75.027 85.519,75.458 85.469 L 75.917 85.417 75.944 79.500 C 75.975 72.701,75.960 72.500,75.398 72.500 C 75.033 72.500,75.000 72.433,75.000 71.685 C 75.000 70.954,74.957 70.859,74.583 70.765 C 74.279 70.688,74.167 70.549,74.167 70.247 C 74.167 70.019,74.110 69.842,74.042 69.853 C 73.608 69.922,73.350 69.786,73.303 69.465 C 73.270 69.234,73.097 69.061,72.839 69.001 C 72.595 68.943,72.393 68.751,72.339 68.526 C 72.290 68.317,72.194 68.151,72.125 68.157 C 71.007 68.245,70.667 68.154,70.667 67.768 C 70.667 67.366,70.274 67.081,69.975 67.265 C 69.658 67.462,69.000 67.168,69.000 66.830 C 69.000 66.649,68.944 66.493,68.875 66.484 C 68.580 66.447,67.536 66.377,66.970 66.356 C 66.469 66.338,66.347 66.265,66.303 65.958 C 66.255 65.616,66.140 65.576,65.000 65.500 C 64.169 65.445,63.744 65.347,63.733 65.208 C 63.724 65.094,63.705 64.925,63.692 64.833 C 63.678 64.739,63.122 64.667,62.417 64.667 C 61.194 64.667,61.167 64.657,61.167 64.250 C 61.167 63.840,61.144 63.833,59.833 63.833 C 58.532 63.833,58.500 63.824,58.500 63.428 C 58.500 63.014,58.003 62.709,57.667 62.917 C 57.365 63.103,56.856 62.828,56.802 62.450 C 56.769 62.217,56.613 62.064,56.375 62.030 C 56.014 61.979,56.000 61.914,56.000 60.248 L 56.000 58.518 56.792 58.467 C 57.467 58.424,57.591 58.362,57.637 58.042 C 57.689 57.674,57.733 57.667,59.939 57.667 C 62.159 57.667,62.187 57.671,62.135 58.032 C 62.097 58.305,62.188 58.423,62.494 58.497 C 62.750 58.558,62.941 58.750,63.001 59.006 C 63.064 59.269,63.215 59.417,63.424 59.417 C 63.726 59.417,63.756 59.573,63.833 61.578 L 63.917 63.740 64.643 63.777 C 65.445 63.817,65.578 63.891,65.581 64.303 C 65.585 64.798,74.063 64.724,74.134 64.229 C 74.175 63.941,74.337 63.854,74.989 63.767 C 75.994 63.634,75.991 63.649,75.979 59.841 C 75.968 56.607,75.888 56.107,75.364 56.030 C 75.027 55.981,75.000 55.884,75.000 54.742 C 75.000 53.571,74.979 53.501,74.593 53.404 C 74.345 53.342,74.166 53.161,74.135 52.943 C 74.102 52.717,73.944 52.563,73.708 52.530 C 73.437 52.492,73.333 52.365,73.333 52.072 C 73.333 51.751,73.247 51.667,72.917 51.667 C 72.583 51.667,72.500 51.583,72.500 51.250 C 72.500 50.917,72.417 50.833,72.083 50.833 C 71.854 50.833,71.657 50.758,71.646 50.667 C 71.634 50.575,71.606 50.425,71.583 50.333 C 71.560 50.242,71.532 50.104,71.521 50.028 C 71.509 49.952,71.331 49.896,71.125 49.903 C 70.858 49.913,70.735 49.809,70.697 49.542 C 70.667 49.335,70.555 49.155,70.447 49.141 C 70.339 49.127,70.175 49.098,70.083 49.077 C 69.992 49.056,69.488 49.030,68.964 49.019 C 68.163 49.003,68.027 48.957,68.113 48.733 C 68.278 48.302,67.844 48.172,66.226 48.169 C 64.741 48.167,64.700 48.156,64.598 47.750 L 64.494 47.333 59.830 47.333 L 55.167 47.333 55.167 47.750 M111.558 47.542 C 111.493 47.645,111.530 47.760,111.638 47.796 C 112.212 47.987,111.462 48.167,110.087 48.167 C 108.307 48.167,108.000 48.243,108.000 48.684 C 108.000 48.952,107.873 49.000,107.167 49.000 C 106.360 49.000,106.333 49.015,106.333 49.478 C 106.333 49.936,106.302 49.955,105.625 49.920 C 104.805 49.877,104.451 50.084,104.591 50.524 C 104.672 50.780,104.600 50.833,104.178 50.833 C 103.748 50.833,103.667 50.897,103.667 51.238 C 103.667 51.532,103.563 51.658,103.292 51.697 C 103.051 51.731,102.898 51.884,102.863 52.125 C 102.817 52.452,102.562 52.589,102.125 52.520 C 102.056 52.509,102.000 52.867,102.000 53.315 C 102.000 54.046,101.957 54.141,101.583 54.235 L 101.167 54.340 101.167 60.753 L 101.167 67.167 101.583 67.167 C 101.972 67.167,102.000 67.222,102.000 67.997 C 102.000 68.743,102.042 68.838,102.417 68.932 C 102.781 69.023,102.922 69.274,102.853 69.708 C 102.842 69.777,103.016 69.833,103.238 69.833 C 103.532 69.833,103.658 69.937,103.697 70.208 C 103.735 70.477,103.880 70.598,104.208 70.636 C 104.568 70.677,104.667 70.776,104.667 71.094 C 104.667 71.469,104.729 71.500,105.488 71.500 C 106.209 71.500,106.317 71.545,106.363 71.868 C 106.424 72.290,106.878 72.459,108.015 72.483 C 108.661 72.497,108.809 72.565,108.970 72.917 C 109.146 73.304,109.243 73.333,110.330 73.333 C 111.467 73.333,111.500 73.345,111.500 73.750 C 111.500 74.143,111.551 74.167,112.405 74.167 C 113.217 74.167,113.316 74.205,113.363 74.542 C 113.412 74.886,113.516 74.921,114.625 74.966 C 115.784 75.013,115.833 75.031,115.833 75.424 C 115.833 75.825,115.862 75.833,117.167 75.833 L 118.500 75.833 118.500 76.333 C 118.500 76.756,118.565 76.833,118.917 76.833 C 119.224 76.833,119.333 76.922,119.333 77.171 C 119.333 77.412,119.475 77.537,119.831 77.608 C 120.104 77.662,120.285 77.776,120.233 77.861 C 120.093 78.088,120.493 78.500,120.854 78.500 C 121.117 78.500,121.167 78.629,121.167 79.313 C 121.167 80.697,121.014 81.167,120.562 81.167 C 120.345 81.167,120.176 81.223,120.186 81.292 C 120.264 81.784,120.131 82.000,119.750 82.000 C 119.417 82.000,119.333 82.083,119.333 82.417 L 119.333 82.833 116.250 82.833 L 113.167 82.833 113.167 82.417 C 113.167 82.083,113.083 82.000,112.750 82.000 C 112.361 82.000,112.333 81.944,112.333 81.167 C 112.333 80.389,112.306 80.333,111.917 80.333 L 111.500 80.333 111.500 77.672 C 111.500 75.613,111.453 75.028,111.292 75.087 C 110.999 75.194,110.716 74.975,110.642 74.583 C 110.581 74.261,110.429 74.249,105.873 74.206 L 101.167 74.161 101.167 74.564 C 101.167 74.861,101.037 75.013,100.675 75.139 L 100.183 75.310 100.189 80.530 C 100.195 86.344,100.194 86.333,100.752 86.333 C 101.107 86.333,101.154 86.417,101.199 87.125 C 101.243 87.801,101.305 87.924,101.625 87.970 C 101.891 88.008,102.000 88.136,102.000 88.410 C 102.000 88.784,102.392 89.086,102.661 88.920 C 102.734 88.875,102.838 89.063,102.892 89.336 C 102.958 89.665,103.092 89.833,103.290 89.833 C 103.454 89.833,103.662 90.002,103.752 90.208 C 103.884 90.509,104.074 90.593,104.708 90.634 C 105.423 90.680,105.500 90.725,105.500 91.092 C 105.500 91.475,105.556 91.500,106.415 91.500 C 107.264 91.500,107.327 91.527,107.290 91.875 C 107.251 92.244,107.283 92.251,109.375 92.297 C 111.560 92.345,111.612 92.362,111.525 93.025 C 111.495 93.259,112.412 93.310,116.583 93.307 C 121.614 93.304,121.833 93.280,121.833 92.729 C 121.833 92.338,121.852 92.333,123.583 92.333 L 125.333 92.333 125.333 91.917 C 125.333 91.509,125.361 91.500,126.580 91.500 C 127.771 91.500,127.832 91.481,127.932 91.083 C 128.007 90.784,128.149 90.667,128.435 90.667 C 128.749 90.667,128.833 90.578,128.833 90.250 C 128.833 89.917,128.917 89.833,129.250 89.833 C 129.583 89.833,129.667 89.750,129.667 89.417 C 129.667 89.127,129.758 89.000,129.967 89.000 C 130.351 89.000,130.667 88.684,130.667 88.300 C 130.667 88.091,130.793 88.000,131.083 88.000 C 131.413 88.000,131.500 87.916,131.500 87.595 C 131.500 87.302,131.604 87.175,131.875 87.137 C 132.196 87.091,132.257 86.967,132.301 86.284 C 132.344 85.612,132.417 85.460,132.762 85.329 L 133.171 85.173 133.127 79.295 L 133.083 73.417 132.708 73.363 C 132.379 73.317,132.333 73.213,132.333 72.506 C 132.333 71.788,132.289 71.692,131.917 71.598 C 131.648 71.531,131.500 71.377,131.500 71.163 C 131.500 70.849,131.440 70.805,130.958 70.767 C 130.844 70.757,130.675 70.375,130.583 69.917 L 130.417 69.083 129.625 69.033 C 128.910 68.987,128.833 68.942,128.833 68.574 C 128.833 68.256,128.746 68.167,128.435 68.167 C 128.149 68.167,128.007 68.049,127.932 67.750 C 127.827 67.332,127.544 67.246,126.542 67.327 C 126.242 67.351,126.167 67.271,126.167 66.929 C 126.167 66.477,126.141 66.465,125.083 66.414 C 124.717 66.396,124.266 66.370,124.081 66.357 C 123.897 66.344,123.672 66.165,123.581 65.958 C 123.404 65.554,123.383 65.548,121.970 65.519 C 121.122 65.502,121.018 65.461,120.970 65.125 C 120.921 64.781,120.817 64.746,119.725 64.701 C 118.616 64.656,118.525 64.624,118.430 64.243 C 118.332 63.854,118.265 63.833,117.080 63.833 C 115.861 63.833,115.833 63.824,115.833 63.417 C 115.833 62.983,115.777 62.959,114.667 62.931 C 114.194 62.919,114.073 62.845,114.030 62.542 C 113.997 62.308,113.825 62.129,113.572 62.066 C 113.284 61.993,113.167 61.848,113.167 61.565 C 113.167 61.346,113.110 61.176,113.042 61.186 C 112.555 61.263,112.333 61.131,112.333 60.762 C 112.333 60.468,112.437 60.342,112.708 60.303 C 113.035 60.257,113.090 60.137,113.134 59.375 C 113.182 58.529,113.200 58.500,113.675 58.500 C 113.946 58.500,114.158 58.444,114.147 58.375 C 114.036 57.671,114.053 57.667,116.750 57.667 L 119.333 57.667 119.333 58.083 C 119.333 58.417,119.417 58.500,119.750 58.500 C 120.175 58.500,120.239 58.662,120.197 59.632 C 120.186 59.885,120.319 60.076,120.590 60.200 C 120.957 60.367,121.002 60.493,121.016 61.402 C 121.030 62.340,121.090 63.410,121.144 63.708 C 121.156 63.777,121.354 63.833,121.583 63.833 C 121.888 63.833,122.000 63.922,122.000 64.163 C 122.000 64.652,122.323 64.682,127.000 64.630 C 131.227 64.584,131.251 64.581,131.415 64.208 C 131.560 63.876,131.812 63.751,132.208 63.814 C 132.491 63.858,132.352 54.376,132.068 54.267 C 131.923 54.211,131.735 54.208,131.652 54.259 C 131.568 54.311,131.500 53.975,131.500 53.513 C 131.500 52.761,131.457 52.662,131.093 52.571 C 130.845 52.509,130.666 52.328,130.635 52.109 C 130.599 51.857,130.446 51.734,130.125 51.697 C 129.765 51.656,129.667 51.558,129.667 51.239 C 129.667 50.920,129.580 50.833,129.261 50.833 C 128.943 50.833,128.844 50.735,128.803 50.375 C 128.754 49.952,128.693 49.917,128.008 49.917 C 127.353 49.917,127.254 49.867,127.168 49.500 C 127.081 49.130,126.972 49.078,126.202 49.033 C 125.405 48.987,125.333 48.949,125.333 48.575 C 125.333 48.350,125.277 48.176,125.208 48.186 C 125.140 48.197,124.165 48.197,123.042 48.186 L 121.000 48.167 121.000 47.745 L 121.000 47.324 116.337 47.339 C 113.058 47.349,111.640 47.409,111.558 47.542 M335.402 47.750 C 335.300 48.156,335.259 48.167,333.774 48.169 C 332.136 48.172,331.761 48.284,331.929 48.722 C 332.021 48.961,331.899 49.003,331.059 49.019 C 330.523 49.030,330.008 49.056,329.917 49.077 C 329.825 49.098,329.661 49.127,329.553 49.141 C 329.445 49.155,329.333 49.335,329.303 49.542 C 329.265 49.809,329.142 49.913,328.875 49.903 C 328.571 49.893,328.500 49.980,328.500 50.362 C 328.500 50.754,328.430 50.833,328.083 50.833 C 327.702 50.833,327.569 51.049,327.647 51.542 C 327.658 51.610,327.442 51.667,327.167 51.667 C 326.748 51.667,326.667 51.733,326.667 52.072 C 326.667 52.365,326.563 52.492,326.292 52.530 C 326.054 52.564,325.898 52.717,325.865 52.948 C 325.832 53.175,325.675 53.332,325.448 53.365 C 325.114 53.412,325.079 53.524,325.035 54.708 C 324.988 55.935,324.967 56.000,324.598 56.000 C 324.009 56.000,324.004 56.118,324.004 70.250 C 324.004 84.411,324.007 84.500,324.605 84.500 C 324.988 84.500,325.000 84.542,325.000 85.833 C 325.000 87.144,325.007 87.167,325.417 87.167 C 325.750 87.167,325.833 87.250,325.833 87.583 C 325.833 87.917,325.917 88.000,326.250 88.000 C 326.579 88.000,326.667 88.084,326.667 88.400 C 326.667 88.696,326.798 88.847,327.169 88.976 C 327.446 89.072,327.662 89.211,327.650 89.284 C 327.584 89.675,327.709 89.833,328.083 89.833 C 328.417 89.833,328.500 89.917,328.500 90.250 C 328.500 90.580,328.584 90.667,328.905 90.667 C 329.198 90.667,329.325 90.770,329.363 91.042 C 329.413 91.389,329.513 91.420,330.705 91.465 C 331.922 91.511,331.991 91.534,331.955 91.882 C 331.918 92.237,331.975 92.252,333.608 92.297 C 335.225 92.343,335.304 92.362,335.398 92.734 C 335.535 93.279,335.789 93.306,340.877 93.306 C 345.533 93.306,345.833 93.261,345.833 92.571 C 345.833 92.381,346.167 92.333,347.500 92.333 C 349.159 92.333,349.167 92.331,349.167 91.924 C 349.167 91.528,349.211 91.512,350.458 91.465 C 351.642 91.421,351.754 91.386,351.802 91.052 C 351.834 90.825,351.991 90.668,352.219 90.635 C 352.449 90.602,352.603 90.446,352.637 90.208 C 352.677 89.927,352.801 89.833,353.137 89.831 C 354.133 89.826,354.320 89.680,354.435 88.815 C 354.530 88.099,354.591 88.000,354.938 88.000 C 355.249 88.000,355.333 87.911,355.333 87.583 C 355.333 87.252,355.417 87.167,355.741 87.167 C 356.116 87.167,356.153 87.095,356.200 86.292 C 356.244 85.529,356.298 85.410,356.625 85.363 L 357.000 85.310 357.000 76.738 L 357.000 68.167 356.583 68.167 C 356.250 68.167,356.167 68.083,356.167 67.750 C 356.167 67.466,356.074 67.332,355.875 67.329 C 355.402 67.322,339.619 67.320,339.208 67.327 C 339.002 67.330,338.842 67.390,338.853 67.458 C 338.931 67.952,338.798 68.167,338.414 68.167 L 337.994 68.167 338.039 72.458 L 338.083 76.750 338.458 76.803 C 338.730 76.842,338.833 76.968,338.833 77.262 L 338.833 77.667 341.833 77.667 L 344.833 77.667 344.833 78.142 C 344.833 78.403,344.882 79.190,344.941 79.892 L 345.049 81.167 344.530 81.167 C 344.185 81.167,344.036 81.237,344.087 81.375 C 344.229 81.762,343.900 82.001,343.156 82.050 C 342.539 82.091,342.408 82.160,342.363 82.466 C 342.278 83.055,338.833 83.037,338.833 82.448 C 338.833 82.105,338.746 82.058,338.046 82.022 C 337.129 81.974,337.151 81.988,337.142 81.477 C 337.125 80.583,337.003 80.333,336.580 80.333 L 336.167 80.333 336.167 70.333 C 336.167 60.504,336.172 60.333,336.494 60.333 C 336.798 60.333,337.200 59.852,337.149 59.548 C 337.005 58.685,337.155 58.500,338.000 58.500 C 338.778 58.500,338.833 58.472,338.833 58.083 L 338.833 57.667 340.572 57.667 C 342.248 57.667,342.312 57.680,342.363 58.042 C 342.409 58.360,342.543 58.429,343.250 58.500 C 344.005 58.576,344.083 58.622,344.084 59.000 C 344.085 59.326,344.166 59.412,344.459 59.397 C 344.902 59.373,344.881 59.268,344.901 61.611 C 344.910 62.635,344.979 63.535,345.055 63.611 C 345.217 63.773,355.991 63.914,356.597 63.762 L 357.006 63.659 356.961 59.454 L 356.917 55.250 356.542 55.197 C 356.205 55.149,356.167 55.050,356.167 54.238 C 356.167 53.384,356.143 53.333,355.750 53.333 C 355.417 53.333,355.333 53.250,355.333 52.917 C 355.333 52.589,355.249 52.500,354.938 52.500 C 354.590 52.500,354.530 52.401,354.432 51.667 L 354.322 50.833 353.494 50.833 C 352.695 50.833,352.667 50.817,352.667 50.356 C 352.667 49.946,352.608 49.886,352.250 49.925 C 351.950 49.958,351.833 49.891,351.833 49.685 C 351.833 49.166,351.462 49.000,350.300 49.000 C 349.202 49.000,349.167 48.987,349.167 48.583 L 349.167 48.167 347.417 48.167 L 345.667 48.167 345.667 47.750 L 345.667 47.333 340.587 47.333 L 335.506 47.333 335.402 47.750 M82.106 48.283 C 82.049 48.340,82.002 58.276,82.002 70.363 L 82.003 92.340 87.986 92.329 C 93.209 92.320,93.983 92.286,94.068 92.062 C 94.292 91.481,94.175 48.548,93.950 48.361 C 93.716 48.167,82.297 48.092,82.106 48.283 M137.500 48.583 C 137.500 48.917,137.417 49.000,137.083 49.000 L 136.667 49.000 136.667 53.333 L 136.667 57.667 137.083 57.667 C 137.417 57.667,137.500 57.750,137.500 58.083 C 137.500 58.435,137.578 58.500,138.000 58.500 C 138.422 58.500,138.500 58.565,138.500 58.917 C 138.500 59.254,138.587 59.338,138.958 59.359 C 139.210 59.373,139.492 59.402,139.583 59.423 C 139.675 59.444,140.814 59.470,142.113 59.481 C 144.431 59.500,144.478 59.507,144.530 59.875 L 144.583 60.250 150.208 60.294 L 155.833 60.338 155.833 60.752 C 155.833 61.083,155.917 61.167,156.250 61.167 L 156.667 61.167 156.667 76.750 L 156.667 92.333 162.250 92.333 L 167.833 92.333 167.833 91.928 C 167.833 91.609,167.932 91.511,168.292 91.469 L 168.750 91.417 168.791 76.083 C 168.814 67.650,168.833 60.657,168.833 60.544 C 168.833 60.385,170.109 60.328,174.375 60.294 L 179.917 60.250 179.970 59.875 C 180.022 59.506,180.064 59.500,182.470 59.486 C 186.028 59.467,186.155 59.440,186.164 58.708 C 186.166 58.570,186.446 58.500,187.002 58.500 L 187.838 58.500 187.794 53.375 L 187.750 48.250 184.065 48.217 L 180.381 48.184 180.162 48.592 L 179.944 49.000 175.472 49.021 C 170.169 49.046,170.626 49.011,170.570 49.390 C 170.545 49.559,170.494 49.729,170.455 49.767 C 170.395 49.827,165.035 49.854,156.470 49.838 C 154.061 49.833,154.022 49.828,153.970 49.458 L 153.917 49.083 149.208 49.039 C 144.729 48.997,144.500 48.980,144.500 48.682 C 144.500 48.205,144.221 48.167,140.736 48.167 L 137.500 48.167 137.500 48.583 M193.213 48.301 C 193.053 48.403,193.017 53.211,193.046 70.340 L 193.083 92.250 206.533 92.293 L 219.982 92.335 219.995 87.584 L 220.007 82.833 219.494 82.833 C 219.211 82.833,219.022 82.765,219.074 82.682 C 219.482 82.022,219.254 82.000,212.066 82.000 L 205.167 82.000 205.167 78.500 L 205.167 75.000 210.833 75.000 L 216.500 75.000 216.500 74.583 C 216.500 74.194,216.556 74.167,217.333 74.167 L 218.167 74.167 218.167 69.417 L 218.167 64.667 211.667 64.667 L 205.167 64.667 205.167 61.583 L 205.167 58.500 211.667 58.500 L 218.167 58.500 218.167 58.083 C 218.167 57.701,218.228 57.667,218.911 57.667 C 219.999 57.667,220.013 57.607,219.961 53.047 C 219.917 49.112,219.914 49.083,219.552 49.031 C 219.325 48.999,219.168 48.842,219.135 48.615 L 219.083 48.250 206.250 48.210 C 199.192 48.188,193.325 48.229,193.213 48.301 M226.073 48.317 C 226.233 48.576,225.981 49.000,225.667 49.000 C 225.165 49.000,225.167 48.931,225.167 70.503 L 225.167 91.478 225.625 91.531 C 225.955 91.569,226.083 91.677,226.084 91.917 C 226.084 92.243,226.207 92.251,231.709 92.285 L 237.333 92.321 237.333 84.577 L 237.333 76.833 239.083 76.833 L 240.833 76.833 240.833 77.667 C 240.833 78.439,240.863 78.500,241.241 78.500 C 241.609 78.500,241.653 78.577,241.699 79.292 C 241.742 79.963,241.806 80.091,242.118 80.136 C 242.456 80.184,242.490 80.292,242.535 81.462 C 242.581 82.666,242.606 82.741,243.000 82.834 C 243.372 82.921,243.417 83.017,243.417 83.716 C 243.417 84.460,243.440 84.500,243.875 84.500 L 244.333 84.500 244.333 85.833 C 244.333 87.137,244.342 87.167,244.741 87.167 C 245.116 87.167,245.153 87.238,245.200 88.042 C 245.231 88.589,245.328 88.924,245.458 88.938 C 245.573 88.949,245.738 88.968,245.826 88.979 C 245.914 88.991,246.007 89.544,246.034 90.208 C 246.079 91.317,246.114 91.421,246.458 91.470 C 246.730 91.508,246.833 91.635,246.833 91.928 L 246.833 92.333 252.500 92.333 L 258.167 92.333 258.167 90.072 C 258.167 87.811,258.036 87.167,257.577 87.167 C 257.417 87.167,257.327 86.981,257.314 86.625 C 257.279 85.633,257.256 85.584,256.792 85.531 C 256.338 85.478,256.333 85.466,256.333 84.242 C 256.333 83.063,256.314 83.002,255.917 82.902 C 255.543 82.808,255.500 82.713,255.500 81.982 C 255.500 81.227,255.470 81.167,255.091 81.167 C 254.698 81.167,254.679 81.117,254.632 79.958 C 254.589 78.889,254.540 78.731,254.208 78.585 C 253.895 78.448,253.833 78.290,253.833 77.627 C 253.833 76.892,253.803 76.833,253.417 76.833 C 253.060 76.833,252.998 76.755,252.987 76.292 C 252.979 75.994,252.961 75.412,252.947 75.000 L 252.920 74.250 253.793 74.200 C 254.595 74.153,254.667 74.116,254.667 73.741 C 254.667 73.417,254.752 73.333,255.083 73.333 C 255.417 73.333,255.500 73.250,255.500 72.917 C 255.500 72.583,255.583 72.500,255.917 72.500 C 256.266 72.500,256.333 72.421,256.333 72.011 C 256.333 71.602,256.408 71.514,256.792 71.469 C 257.211 71.421,257.254 71.350,257.301 70.625 C 257.347 69.910,257.391 69.833,257.759 69.833 C 258.157 69.833,258.167 69.803,258.167 68.500 C 258.167 67.187,258.173 67.167,258.586 67.167 L 259.005 67.167 258.961 62.458 L 258.917 57.750 258.542 57.697 C 258.187 57.646,258.167 57.568,258.167 56.252 C 258.167 54.651,258.083 54.333,257.660 54.333 C 257.452 54.333,257.339 54.188,257.303 53.875 C 257.261 53.515,257.152 53.405,256.792 53.364 C 256.432 53.323,256.333 53.224,256.333 52.906 C 256.333 52.584,256.247 52.500,255.917 52.500 C 255.583 52.500,255.500 52.417,255.500 52.083 C 255.500 51.750,255.417 51.667,255.083 51.667 C 254.750 51.667,254.667 51.583,254.667 51.250 C 254.667 50.922,254.582 50.833,254.268 50.833 C 253.987 50.833,253.840 50.716,253.770 50.437 C 253.660 50.000,253.296 49.849,252.514 49.915 C 252.078 49.953,252.000 49.902,252.000 49.581 C 252.000 49.094,251.866 49.052,250.171 49.013 C 248.657 48.979,248.589 48.958,248.585 48.530 C 248.583 48.271,247.735 48.247,237.281 48.207 C 230.461 48.181,226.016 48.225,226.073 48.317 M265.068 48.583 C 265.003 48.844,264.846 49.000,264.649 49.000 C 264.475 49.000,264.333 49.094,264.331 49.208 C 264.328 49.652,264.325 91.766,264.329 92.042 C 264.333 92.314,264.732 92.333,270.333 92.333 L 276.333 92.333 276.333 70.250 L 276.333 48.167 270.753 48.167 L 265.173 48.167 265.068 48.583 M284.208 70.208 L 284.250 92.250 289.769 92.294 L 295.289 92.338 295.393 91.711 C 295.450 91.366,295.497 87.277,295.498 82.625 L 295.500 74.167 295.917 74.167 C 296.272 74.167,296.336 74.247,296.353 74.708 C 296.387 75.684,296.413 75.749,296.782 75.802 C 297.033 75.838,297.163 75.989,297.198 76.287 C 297.230 76.557,297.366 76.737,297.557 76.764 C 298.009 76.829,298.075 76.949,298.083 77.719 C 298.089 78.353,298.132 78.421,298.545 78.469 C 298.972 78.519,299.000 78.573,299.000 79.344 C 299.000 80.110,299.029 80.167,299.417 80.167 C 299.769 80.167,299.833 80.244,299.833 80.667 C 299.833 81.089,299.898 81.167,300.250 81.167 C 300.642 81.167,300.827 81.820,300.686 82.708 C 300.676 82.777,300.854 82.833,301.083 82.833 C 301.447 82.833,301.500 82.906,301.500 83.403 C 301.500 84.188,301.647 84.500,302.018 84.500 C 302.317 84.500,302.362 84.578,302.400 85.167 C 302.410 85.310,302.612 85.439,302.875 85.469 C 303.306 85.519,303.333 85.571,303.333 86.344 C 303.333 87.105,303.364 87.167,303.741 87.167 C 304.109 87.167,304.153 87.244,304.199 87.958 C 304.242 88.627,304.307 88.758,304.615 88.802 C 304.870 88.838,304.995 88.988,305.032 89.302 C 305.068 89.616,305.193 89.766,305.450 89.802 C 305.758 89.846,305.824 89.977,305.866 90.629 C 305.910 91.299,305.973 91.416,306.333 91.501 C 306.602 91.564,306.750 91.715,306.750 91.925 C 306.750 92.239,306.919 92.251,311.959 92.294 L 317.167 92.338 317.167 91.919 C 317.167 91.583,317.249 91.500,317.583 91.500 L 318.000 91.500 318.000 70.250 L 318.000 49.000 317.583 49.000 C 317.249 49.000,317.167 48.917,317.167 48.581 L 317.167 48.162 311.962 48.206 L 306.757 48.250 306.731 49.000 C 306.717 49.413,306.696 53.711,306.686 58.553 L 306.667 67.357 306.292 67.303 C 305.976 67.258,305.908 67.131,305.864 66.503 C 305.810 65.748,305.591 65.440,305.208 65.580 C 305.071 65.630,305.000 65.487,305.000 65.161 C 305.000 64.745,304.934 64.667,304.583 64.667 C 304.200 64.667,304.167 64.606,304.167 63.913 C 304.167 63.261,304.110 63.137,303.750 63.000 C 303.521 62.913,303.328 62.746,303.321 62.629 C 303.263 61.632,303.054 61.143,302.711 61.201 C 302.498 61.236,302.402 61.123,302.364 60.792 C 302.323 60.432,302.224 60.333,301.906 60.333 C 301.531 60.333,301.500 60.271,301.500 59.518 C 301.500 58.787,301.457 58.692,301.083 58.598 C 300.729 58.509,300.667 58.398,300.667 57.851 C 300.667 57.198,300.327 56.714,300.007 56.912 C 299.901 56.978,299.833 56.822,299.833 56.510 C 299.833 56.056,299.779 56.000,299.342 56.000 C 298.867 56.000,298.849 55.971,298.800 55.125 C 298.755 54.336,298.714 54.254,298.384 54.288 C 298.053 54.323,298.012 54.240,297.967 53.455 C 297.921 52.663,297.882 52.587,297.542 52.623 C 297.228 52.656,297.167 52.582,297.167 52.165 C 297.167 51.745,297.101 51.667,296.750 51.667 C 296.361 51.667,296.333 51.611,296.333 50.833 C 296.333 50.023,296.257 49.918,295.720 49.985 C 295.612 49.998,295.499 49.801,295.470 49.546 C 295.428 49.181,295.320 49.072,294.958 49.031 C 294.598 48.989,294.500 48.891,294.500 48.572 L 294.500 48.167 289.333 48.167 L 284.165 48.167 284.208 70.208 M244.333 58.901 C 244.333 59.255,244.429 59.315,245.158 59.415 L 245.983 59.529 246.033 60.306 C 246.076 60.967,246.140 61.091,246.458 61.137 C 247.076 61.224,247.036 63.833,246.417 63.833 C 246.187 63.833,246.009 63.890,246.020 63.958 C 246.031 64.027,246.031 64.398,246.020 64.783 L 246.000 65.482 245.208 65.533 C 244.544 65.575,244.408 65.641,244.366 65.942 C 244.301 66.394,243.898 66.434,240.125 66.367 L 237.333 66.318 237.333 62.409 L 237.333 58.500 240.833 58.500 L 244.333 58.500 244.333 58.901 M139.404 62.985 C 139.365 63.024,139.333 69.643,139.333 77.694 L 139.333 92.333 144.917 92.333 L 150.500 92.333 150.500 91.917 C 150.500 91.583,150.583 91.500,150.917 91.500 L 151.333 91.500 151.333 78.083 L 151.333 64.667 150.500 64.667 C 149.722 64.667,149.667 64.639,149.667 64.250 L 149.667 63.833 146.167 63.833 L 142.667 63.833 142.667 63.417 C 142.667 62.960,142.780 62.987,140.695 62.942 C 140.024 62.927,139.442 62.947,139.404 62.985 M182.825 63.075 C 182.738 63.162,182.667 63.368,182.667 63.533 C 182.667 63.814,182.410 63.833,178.750 63.833 C 176.596 63.833,174.842 63.890,174.853 63.958 C 174.931 64.451,174.798 64.667,174.417 64.667 L 174.000 64.667 174.000 78.500 L 174.000 92.333 179.583 92.333 L 185.167 92.333 185.167 91.511 C 185.167 90.738,185.194 90.686,185.625 90.636 L 186.083 90.583 186.126 76.926 C 186.152 68.506,186.108 63.208,186.011 63.111 C 185.803 62.903,183.028 62.871,182.825 63.075 " stroke="none" fill="#7404e4" fill-rule="evenodd"></path><path id="path1" d="M264.247 70.333 C 264.247 81.196,264.267 85.640,264.292 80.208 C 264.316 74.777,264.316 65.890,264.292 60.458 C 264.267 55.027,264.247 59.471,264.247 70.333 M344.879 60.333 C 344.879 60.746,344.911 60.915,344.951 60.708 C 344.991 60.502,344.991 60.165,344.951 59.958 C 344.911 59.752,344.879 59.921,344.879 60.333 M140.292 62.951 C 140.498 62.991,140.835 62.991,141.042 62.951 C 141.248 62.911,141.079 62.879,140.667 62.879 C 140.254 62.879,140.085 62.911,140.292 62.951 M183.708 62.953 C 183.960 62.991,184.373 62.991,184.625 62.953 C 184.877 62.915,184.671 62.883,184.167 62.883 C 183.662 62.883,183.456 62.915,183.708 62.953 M344.053 67.292 C 346.053 67.318,349.278 67.318,351.220 67.291 C 353.161 67.265,351.525 67.243,347.583 67.243 C 343.642 67.243,342.053 67.265,344.053 67.292 M121.053 79.500 C 121.053 80.096,121.084 80.340,121.121 80.042 C 121.158 79.744,121.158 79.256,121.121 78.958 C 121.084 78.660,121.053 78.904,121.053 79.500 M344.883 80.333 C 344.883 80.837,344.915 81.044,344.953 80.792 C 344.991 80.540,344.991 80.127,344.953 79.875 C 344.915 79.623,344.883 79.829,344.883 80.333 " stroke="none" fill="#7804e4" fill-rule="evenodd"></path><path id="path2" d="M264.247 70.333 C 264.247 81.196,264.267 85.640,264.292 80.208 C 264.316 74.777,264.316 65.890,264.292 60.458 C 264.267 55.027,264.247 59.471,264.247 70.333 M344.879 60.333 C 344.879 60.746,344.911 60.915,344.951 60.708 C 344.991 60.502,344.991 60.165,344.951 59.958 C 344.911 59.752,344.879 59.921,344.879 60.333 M140.292 62.951 C 140.498 62.991,140.835 62.991,141.042 62.951 C 141.248 62.911,141.079 62.879,140.667 62.879 C 140.254 62.879,140.085 62.911,140.292 62.951 M183.708 62.953 C 183.960 62.991,184.373 62.991,184.625 62.953 C 184.877 62.915,184.671 62.883,184.167 62.883 C 183.662 62.883,183.456 62.915,183.708 62.953 M344.053 67.292 C 346.053 67.318,349.278 67.318,351.220 67.291 C 353.161 67.265,351.525 67.243,347.583 67.243 C 343.642 67.243,342.053 67.265,344.053 67.292 M121.053 79.500 C 121.053 80.096,121.084 80.340,121.121 80.042 C 121.158 79.744,121.158 79.256,121.121 78.958 C 121.084 78.660,121.053 78.904,121.053 79.500 M344.883 80.333 C 344.883 80.837,344.915 81.044,344.953 80.792 C 344.991 80.540,344.991 80.127,344.953 79.875 C 344.915 79.623,344.883 79.829,344.883 80.333 " stroke="none" fill="#7804e4" fill-rule="evenodd"></path><path id="path3" d="M264.247 70.333 C 264.247 81.196,264.267 85.640,264.292 80.208 C 264.316 74.777,264.316 65.890,264.292 60.458 C 264.267 55.027,264.247 59.471,264.247 70.333 M344.879 60.333 C 344.879 60.746,344.911 60.915,344.951 60.708 C 344.991 60.502,344.991 60.165,344.951 59.958 C 344.911 59.752,344.879 59.921,344.879 60.333 M140.292 62.951 C 140.498 62.991,140.835 62.991,141.042 62.951 C 141.248 62.911,141.079 62.879,140.667 62.879 C 140.254 62.879,140.085 62.911,140.292 62.951 M183.708 62.953 C 183.960 62.991,184.373 62.991,184.625 62.953 C 184.877 62.915,184.671 62.883,184.167 62.883 C 183.662 62.883,183.456 62.915,183.708 62.953 M344.053 67.292 C 346.053 67.318,349.278 67.318,351.220 67.291 C 353.161 67.265,351.525 67.243,347.583 67.243 C 343.642 67.243,342.053 67.265,344.053 67.292 M121.053 79.500 C 121.053 80.096,121.084 80.340,121.121 80.042 C 121.158 79.744,121.158 79.256,121.121 78.958 C 121.084 78.660,121.053 78.904,121.053 79.500 M344.883 80.333 C 344.883 80.837,344.915 81.044,344.953 80.792 C 344.991 80.540,344.991 80.127,344.953 79.875 C 344.915 79.623,344.883 79.829,344.883 80.333 " stroke="none" fill="#7804e4" fill-rule="evenodd"></path><path id="path4" d="M264.247 70.333 C 264.247 81.196,264.267 85.640,264.292 80.208 C 264.316 74.777,264.316 65.890,264.292 60.458 C 264.267 55.027,264.247 59.471,264.247 70.333 M344.879 60.333 C 344.879 60.746,344.911 60.915,344.951 60.708 C 344.991 60.502,344.991 60.165,344.951 59.958 C 344.911 59.752,344.879 59.921,344.879 60.333 M140.292 62.951 C 140.498 62.991,140.835 62.991,141.042 62.951 C 141.248 62.911,141.079 62.879,140.667 62.879 C 140.254 62.879,140.085 62.911,140.292 62.951 M183.708 62.953 C 183.960 62.991,184.373 62.991,184.625 62.953 C 184.877 62.915,184.671 62.883,184.167 62.883 C 183.662 62.883,183.456 62.915,183.708 62.953 M344.053 67.292 C 346.053 67.318,349.278 67.318,351.220 67.291 C 353.161 67.265,351.525 67.243,347.583 67.243 C 343.642 67.243,342.053 67.265,344.053 67.292 M121.053 79.500 C 121.053 80.096,121.084 80.340,121.121 80.042 C 121.158 79.744,121.158 79.256,121.121 78.958 C 121.084 78.660,121.053 78.904,121.053 79.500 M344.883 80.333 C 344.883 80.837,344.915 81.044,344.953 80.792 C 344.991 80.540,344.991 80.127,344.953 79.875 C 344.915 79.623,344.883 79.829,344.883 80.333 " stroke="none" fill="#7804e4" fill-rule="evenodd"></path></g></svg>